#Comment line ignore any data following # character 
#Hierarchical Translation and Rotation (.htr) file 
[Header]	
#Header keywords are followed by a single value 
FileType HTR		#Single word string
DataType HTRS		#Translation followed by rotation and scale data
FileVersion 1		#integer
NumSegments 84		#integer
NumFrames 2		#integer
DataFrameRate 30		#integer, data frame rate in this file
EulerRotationOrder ZYX
CalibrationUnits mm
RotationUnits Degrees
GlobalAxisofGravity Y
BoneLengthAxis Y
ScaleFactor 1.00
[SegmentNames&Hierarchy]
#CHILD	PARENT
MASTER GLOBAL
root MASTER
chest root
L_mid_tent01 root
R_mid_tent01 root
spine01 root
Bip01_Neck chest
L_humerus chest
R_humerus chest
weapon_bone chest
Bip01_Head Bip01_Neck
eye_left_bone Bip01_Head
eye_right_bone Bip01_Head
L_forearm L_humerus
L_front_hand L_forearm
L_weapon_bone L_forearm
L_front_hand01_01 L_front_hand
L_front_hand02_01 L_front_hand
L_front_hand03_01 L_front_hand
L_front_hand01_02 L_front_hand01_01
L_front_hand02_02 L_front_hand02_01
L_front_hand03_02 L_front_hand03_01
R_forearm R_humerus
R_front_hand R_forearm
R_weapon_bone R_forearm
R_front_hand01_01 R_front_hand
R_front_hand02_01 R_front_hand
R_front_hand03_01 R_front_hand
R_front_hand01_02 R_front_hand01_01
R_front_hand02_02 R_front_hand02_01
R_front_hand03_02 R_front_hand03_01
null_rope01_connect L_mid_tent01
Rope1_Seg01 null_rope01_connect
Rope1_Seg02 Rope1_Seg01
Rope1_Seg03 Rope1_Seg02
Rope1_Seg04 Rope1_Seg03
Rope1_Seg05 Rope1_Seg04
Rope1_Seg06 Rope1_Seg05
Rope1_Seg07 Rope1_Seg06
Rope1_Seg09 Rope1_Seg07
L_mid_hand01 Rope1_Seg09
L_mid_hand02 Rope1_Seg09
L_mid_hand03 Rope1_Seg09
null_rope02_connect R_mid_tent01
Rope2_Seg01 null_rope02_connect
Rope2_Seg02 Rope2_Seg01
Rope2_Seg03 Rope2_Seg02
Rope2_Seg04 Rope2_Seg03
Rope2_Seg05 Rope2_Seg04
Rope2_Seg06 Rope2_Seg05
Rope2_Seg07 Rope2_Seg06
Rope2_Seg09 Rope2_Seg07
R_mid_hand01 Rope2_Seg09
R_mid_hand02 Rope2_Seg09
R_mid_hand03 Rope2_Seg09
spine02 spine01
spine03 spine02
pelvis spine03
null_rope03_connect pelvis
null_rope04_connect pelvis
Rope3_Seg01 null_rope03_connect
Rope3_Seg02 Rope3_Seg01
Rope3_Seg03 Rope3_Seg02
Rope3_Seg04 Rope3_Seg03
Rope3_Seg05 Rope3_Seg04
Rope3_Seg06 Rope3_Seg05
Rope3_Seg07 Rope3_Seg06
Rope3_Seg08 Rope3_Seg07
Rope3_Seg09 Rope3_Seg08
R_rear_hand01 Rope3_Seg09
R_rear_hand02 Rope3_Seg09
R_rear_hand03 Rope3_Seg09
Rope4_Seg01 null_rope04_connect
Rope4_Seg02 Rope4_Seg01
Rope4_Seg03 Rope4_Seg02
Rope4_Seg04 Rope4_Seg03
Rope4_Seg05 Rope4_Seg04
Rope4_Seg06 Rope4_Seg05
Rope4_Seg07 Rope4_Seg06
Rope4_Seg08 Rope4_Seg07
Rope4_Seg09 Rope4_Seg08
L_rear_hand01 Rope4_Seg09
L_rear_hand02 Rope4_Seg09
L_rear_hand03 Rope4_Seg09
[BasePosition]
#SegmentName Tx, Ty, Tz, Rx, Ry, Rz, BoneLength
MASTER 0.000000 0.000000 0.000000 -90.000000 0.000000 0.000000 10.000000 
root 0.000000 0.000000 0.000000 0.000000 0.000000 0.000000 10.000000 
chest 0.000000 0.000000 0.000000 0.000000 0.000000 0.000000 10.000000 
L_mid_tent01 0.000000 0.000000 0.000000 0.000000 0.000000 0.000000 10.000000 
R_mid_tent01 0.000000 0.000000 0.000000 0.000000 0.000000 0.000000 10.000000 
spine01 0.000000 0.000000 0.000000 0.000000 0.000000 0.000000 10.000000 
Bip01_Neck 0.000000 0.000000 0.000000 0.000000 0.000000 0.000000 10.000000 
L_humerus 0.000000 0.000000 0.000000 0.000000 0.000000 0.000000 10.000000 
R_humerus 0.000000 0.000000 0.000000 0.000000 0.000000 0.000000 10.000000 
weapon_bone 0.000000 0.000000 0.000000 0.000000 0.000000 0.000000 10.000000 
Bip01_Head 0.000000 0.000000 0.000000 0.000000 0.000000 0.000000 10.000000 
eye_left_bone 0.000000 0.000000 0.000000 0.000000 0.000000 0.000000 10.000000 
eye_right_bone 0.000000 0.000000 0.000000 0.000000 0.000000 0.000000 10.000000 
L_forearm 0.000000 0.000000 0.000000 0.000000 0.000000 0.000000 10.000000 
L_front_hand 0.000000 0.000000 0.000000 0.000000 0.000000 0.000000 10.000000 
L_weapon_bone 0.000000 0.000000 0.000000 0.000000 0.000000 0.000000 10.000000 
L_front_hand01_01 0.000000 0.000000 0.000000 0.000000 0.000000 0.000000 10.000000 
L_front_hand02_01 0.000000 0.000000 0.000000 0.000000 0.000000 0.000000 10.000000 
L_front_hand03_01 0.000000 0.000000 0.000000 0.000000 0.000000 0.000000 10.000000 
L_front_hand01_02 0.000000 0.000000 0.000000 0.000000 0.000000 0.000000 10.000000 
L_front_hand02_02 0.000000 0.000000 0.000000 0.000000 0.000000 0.000000 10.000000 
L_front_hand03_02 0.000000 0.000000 0.000000 0.000000 0.000000 0.000000 10.000000 
R_forearm 0.000000 0.000000 0.000000 0.000000 0.000000 0.000000 10.000000 
R_front_hand 0.000000 0.000000 0.000000 0.000000 0.000000 0.000000 10.000000 
R_weapon_bone 0.000000 0.000000 0.000000 0.000000 0.000000 0.000000 10.000000 
R_front_hand01_01 0.000000 0.000000 0.000000 0.000000 0.000000 0.000000 10.000000 
R_front_hand02_01 0.000000 0.000000 0.000000 0.000000 0.000000 0.000000 10.000000 
R_front_hand03_01 0.000000 0.000000 0.000000 0.000000 0.000000 0.000000 10.000000 
R_front_hand01_02 0.000000 0.000000 0.000000 0.000000 0.000000 0.000000 10.000000 
R_front_hand02_02 0.000000 0.000000 0.000000 0.000000 0.000000 0.000000 10.000000 
R_front_hand03_02 0.000000 0.000000 0.000000 0.000000 0.000000 0.000000 10.000000 
null_rope01_connect 0.000000 0.000000 0.000000 0.000000 0.000000 0.000000 10.000000 
Rope1_Seg01 0.000000 0.000000 0.000000 0.000000 0.000000 0.000000 10.000000 
Rope1_Seg02 0.000000 0.000000 0.000000 0.000000 0.000000 0.000000 10.000000 
Rope1_Seg03 0.000000 0.000000 0.000000 0.000000 0.000000 0.000000 10.000000 
Rope1_Seg04 0.000000 0.000000 0.000000 0.000000 0.000000 0.000000 10.000000 
Rope1_Seg05 0.000000 0.000000 0.000000 0.000000 0.000000 0.000000 10.000000 
Rope1_Seg06 0.000000 0.000000 0.000000 0.000000 0.000000 0.000000 10.000000 
Rope1_Seg07 0.000000 0.000000 0.000000 0.000000 0.000000 0.000000 10.000000 
Rope1_Seg09 0.000000 0.000000 0.000000 0.000000 0.000000 0.000000 10.000000 
L_mid_hand01 0.000000 0.000000 0.000000 0.000000 0.000000 0.000000 10.000000 
L_mid_hand02 0.000000 0.000000 0.000000 0.000000 0.000000 0.000000 10.000000 
L_mid_hand03 0.000000 0.000000 0.000000 0.000000 0.000000 0.000000 10.000000 
null_rope02_connect 0.000000 0.000000 0.000000 0.000000 0.000000 0.000000 10.000000 
Rope2_Seg01 0.000000 0.000000 0.000000 0.000000 0.000000 0.000000 10.000000 
Rope2_Seg02 0.000000 0.000000 0.000000 0.000000 0.000000 0.000000 10.000000 
Rope2_Seg03 0.000000 0.000000 0.000000 0.000000 0.000000 0.000000 10.000000 
Rope2_Seg04 0.000000 0.000000 0.000000 0.000000 0.000000 0.000000 10.000000 
Rope2_Seg05 0.000000 0.000000 0.000000 0.000000 0.000000 0.000000 10.000000 
Rope2_Seg06 0.000000 0.000000 0.000000 0.000000 0.000000 0.000000 10.000000 
Rope2_Seg07 0.000000 0.000000 0.000000 0.000000 0.000000 0.000000 10.000000 
Rope2_Seg09 0.000000 0.000000 0.000000 0.000000 0.000000 0.000000 10.000000 
R_mid_hand01 0.000000 0.000000 0.000000 0.000000 0.000000 0.000000 10.000000 
R_mid_hand02 0.000000 0.000000 0.000000 0.000000 0.000000 0.000000 10.000000 
R_mid_hand03 0.000000 0.000000 0.000000 0.000000 0.000000 0.000000 10.000000 
spine02 0.000000 0.000000 0.000000 0.000000 0.000000 0.000000 10.000000 
spine03 0.000000 0.000000 0.000000 0.000000 0.000000 0.000000 10.000000 
pelvis 0.000000 0.000000 0.000000 0.000000 0.000000 0.000000 10.000000 
null_rope03_connect 0.000000 0.000000 0.000000 0.000000 0.000000 0.000000 10.000000 
null_rope04_connect 0.000000 0.000000 0.000000 0.000000 0.000000 0.000000 10.000000 
Rope3_Seg01 0.000000 0.000000 0.000000 0.000000 0.000000 0.000000 10.000000 
Rope3_Seg02 0.000000 0.000000 0.000000 0.000000 0.000000 0.000000 10.000000 
Rope3_Seg03 0.000000 0.000000 0.000000 0.000000 0.000000 0.000000 10.000000 
Rope3_Seg04 0.000000 0.000000 0.000000 0.000000 0.000000 0.000000 10.000000 
Rope3_Seg05 0.000000 0.000000 0.000000 0.000000 0.000000 0.000000 10.000000 
Rope3_Seg06 0.000000 0.000000 0.000000 0.000000 0.000000 0.000000 10.000000 
Rope3_Seg07 0.000000 0.000000 0.000000 0.000000 0.000000 0.000000 10.000000 
Rope3_Seg08 0.000000 0.000000 0.000000 0.000000 0.000000 0.000000 10.000000 
Rope3_Seg09 0.000000 0.000000 0.000000 0.000000 0.000000 0.000000 10.000000 
R_rear_hand01 0.000000 0.000000 0.000000 0.000000 0.000000 0.000000 10.000000 
R_rear_hand02 0.000000 0.000000 0.000000 0.000000 0.000000 0.000000 10.000000 
R_rear_hand03 0.000000 0.000000 0.000000 0.000000 0.000000 0.000000 10.000000 
Rope4_Seg01 0.000000 0.000000 0.000000 0.000000 0.000000 0.000000 10.000000 
Rope4_Seg02 0.000000 0.000000 0.000000 0.000000 0.000000 0.000000 10.000000 
Rope4_Seg03 0.000000 0.000000 0.000000 0.000000 0.000000 0.000000 10.000000 
Rope4_Seg04 0.000000 0.000000 0.000000 0.000000 0.000000 0.000000 10.000000 
Rope4_Seg05 0.000000 0.000000 0.000000 0.000000 0.000000 0.000000 10.000000 
Rope4_Seg06 0.000000 0.000000 0.000000 0.000000 0.000000 0.000000 10.000000 
Rope4_Seg07 0.000000 0.000000 0.000000 0.000000 0.000000 0.000000 10.000000 
Rope4_Seg08 0.000000 0.000000 0.000000 0.000000 0.000000 0.000000 10.000000 
Rope4_Seg09 0.000000 0.000000 0.000000 0.000000 0.000000 0.000000 10.000000 
L_rear_hand01 0.000000 0.000000 0.000000 0.000000 0.000000 0.000000 10.000000 
L_rear_hand02 0.000000 0.000000 0.000000 0.000000 0.000000 0.000000 10.000000 
L_rear_hand03 0.000000 0.000000 0.000000 0.000000 0.000000 0.000000 10.000000 
#Beginning of Data. Separated by tabs
#Fr	Tx	Ty	Tz	Rx	Ry	Rz	SF
[MASTER]
6 -0.000129 873.964600 0.000000 0.001660 0.001660 0.001660 873.964600
7 -0.000168 1133.484375 113.870209 0.001660 0.001660 0.001660 1139.189697
[root]
6 -16.502291 -62.821960 1500.000000 -91.767502 -35.574497 -89.880173 1501.405640
7 -16.408327 -63.969658 1499.578491 -91.961571 -35.576691 -89.878815 1501.031982
[chest]
6 -84.512650 -34.090519 0.000000 -2.019906 0.602782 171.823990 91.129311
7 -84.512650 -34.090519 0.000000 -1.747625 0.591364 172.415924 91.129311
[L_mid_tent01]
6 27.299465 22.177530 -249.918274 -1.379268 36.511192 66.497536 252.381149
7 27.299458 22.177534 -249.918274 -0.665119 30.070927 67.683670 252.381149
[R_mid_tent01]
6 23.228794 24.509907 226.238495 173.895706 -30.891880 58.389252 228.744751
7 23.228794 24.509907 226.238495 171.962082 -27.534615 62.824005 228.744751
[spine01]
6 -0.361383 -0.195265 0.000000 0.001845 0.001451 13.654368 0.410763
7 -0.361383 -0.195265 0.000000 0.001845 0.001451 13.654368 0.410763
[Bip01_Neck]
6 165.484543 71.581718 0.000119 176.643677 -1.657967 43.431911 180.302734
7 165.484543 71.581718 0.000119 176.643677 -1.657967 43.431911 180.302734
[L_humerus]
6 -13.983130 -135.272980 -120.471481 156.317398 70.210068 -112.010254 181.680161
7 -13.983130 -135.272980 -120.471481 155.689362 70.704018 -112.674919 181.680161
[R_humerus]
6 -13.983309 -135.273102 125.287651 -172.382263 -66.903831 -92.553993 184.909012
7 -13.983309 -135.273102 125.287651 -172.327835 -67.049118 -92.615227 184.909012
[weapon_bone]
6 235.964890 -300.705902 0.000000 0.000000 -89.951546 -128.212341 382.234833
7 235.964890 -300.705902 0.000000 0.000000 -89.951546 -128.212341 382.234833
[Bip01_Head]
6 213.442169 185.721237 11.700993 4.962490 2.797846 -43.898743 283.172821
7 213.441742 185.722412 11.685802 4.965024 2.937653 -43.899414 283.172668
[eye_left_bone]
6 -24.626970 125.451866 -64.772606 0.000000 -90.000000 -99.840431 143.318359
7 -24.626970 125.451866 -64.772606 0.000000 -90.000000 -99.840431 143.318359
[eye_right_bone]
6 -24.626970 125.451866 64.327362 0.000000 -89.965736 80.156380 143.117676
7 -24.626970 125.451866 64.327362 0.000000 -89.965736 80.156380 143.117676
[L_forearm]
6 322.776093 0.000000 -0.000119 0.000119 -0.002344 -95.807457 322.776093
7 322.776093 0.000000 -0.000119 0.000119 -0.002344 -95.807457 322.776093
[L_front_hand]
6 241.149185 -0.042021 -3.300071 -178.667953 -1.835447 -27.422350 241.171753
7 241.149185 -0.042021 -3.300071 -178.667953 -1.835447 -27.422350 241.171753
[L_weapon_bone]
6 156.183838 0.000000 0.000000 0.000014 0.000007 0.000001 156.183838
7 156.183838 0.000000 0.000000 0.000014 0.000007 0.000001 156.183838
[L_front_hand01_01]
6 86.095154 20.947098 -0.655860 -0.366594 -0.477154 75.385574 88.609184
7 86.095154 20.947098 -0.655860 -0.366594 -0.477154 75.385574 88.609184
[L_front_hand02_01]
6 86.935165 -11.437475 24.513514 154.399796 -59.883835 -61.369587 91.046425
7 86.935165 -11.437475 24.513514 154.399796 -59.883835 -61.369587 91.046425
[L_front_hand03_01]
6 86.637497 -14.123976 -20.424902 -153.913849 58.118122 -62.702866 90.126129
7 86.637497 -14.123976 -20.424902 -153.913849 58.118122 -62.702866 90.126129
[L_front_hand01_02]
6 71.020905 -0.000179 0.000030 0.000320 -0.002325 -105.689751 71.020905
7 71.020905 -0.000179 0.000030 0.000319 -0.002325 -105.644562 71.020905
[L_front_hand02_02]
6 71.020927 -0.000119 0.000060 0.000320 -0.002325 -105.689751 71.020927
7 71.020927 -0.000119 0.000060 0.000319 -0.002325 -105.644562 71.020927
[L_front_hand03_02]
6 71.020905 -0.000060 0.000060 0.000320 -0.002325 -105.689751 71.020905
7 71.020905 -0.000060 0.000060 0.000319 -0.002325 -105.644562 71.020905
[R_forearm]
6 322.776428 -0.000060 0.000030 0.209504 0.012586 -94.339050 322.776428
7 322.776428 -0.000060 0.000030 0.209504 0.012586 -94.339050 322.776428
[R_front_hand]
6 238.847015 -0.006795 2.210259 -2.635298 -10.645461 -26.312506 238.857239
7 238.847015 -0.006795 2.210259 -2.635298 -10.645461 -26.312506 238.857239
[R_weapon_bone]
6 155.664093 0.002503 -0.000030 0.003487 0.001180 -90.988930 155.664078
7 155.664093 0.002503 -0.000030 0.003487 0.001180 -90.988930 155.664078
[R_front_hand01_01]
6 87.624611 14.231146 22.918642 -154.633514 -59.950634 61.746063 91.683487
7 87.624611 14.231146 22.918642 -154.633499 -59.950619 61.746044 91.683487
[R_front_hand02_01]
6 89.356956 14.367283 -19.491137 154.602661 58.302849 63.744389 92.579636
7 89.356956 14.367283 -19.491137 154.602661 58.302849 63.744389 92.579636
[R_front_hand03_01]
6 87.286232 -22.307278 -0.143439 0.162155 -0.423168 -75.767921 90.091743
7 87.286232 -22.307278 -0.143439 0.162155 -0.423168 -75.767921 90.091743
[R_front_hand01_02]
6 71.020905 0.000060 0.000119 0.002323 -0.000334 106.381714 71.020905
7 71.020905 0.000060 0.000119 0.002323 -0.000334 106.381714 71.020905
[R_front_hand02_02]
6 71.020844 -0.000030 -0.000119 0.002323 -0.000334 106.381714 71.020836
7 71.020844 -0.000030 -0.000119 0.002323 -0.000334 106.381714 71.020836
[R_front_hand03_02]
6 71.020905 0.000000 0.000030 0.002323 -0.000334 106.381714 71.020905
7 71.020905 0.000000 0.000030 0.002323 -0.000334 106.381714 71.020905
[null_rope01_connect]
6 328.732483 0.000000 -0.000238 -124.157524 -51.912300 -176.982559 328.732483
7 328.732483 0.000000 -0.000238 -124.698494 -58.192017 -177.378448 328.732483
[Rope1_Seg01]
6 0.000000 0.000000 0.000000 -84.772125 57.312809 -89.310570 0.000000
7 0.000000 0.000000 0.000000 -80.543159 57.514263 -85.801170 0.000000
[Rope1_Seg02]
6 139.999863 -0.000179 0.000000 -9.827958 -1.027192 18.702833 139.999863
7 139.999863 -0.000179 0.000000 -9.830606 0.420216 17.693031 139.999863
[Rope1_Seg03]
6 139.999924 0.000060 -0.000060 -6.627690 -4.896581 26.623077 139.999924
7 139.999924 0.000060 -0.000060 -6.738027 -2.818820 25.153812 139.999924
[Rope1_Seg04]
6 139.999924 -0.000060 -0.000119 -1.245536 -5.806113 21.267710 139.999924
7 139.999924 -0.000060 -0.000119 -1.534050 -4.204522 21.414606 139.999924
[Rope1_Seg05]
6 139.999832 0.000119 -0.000060 -0.357984 -9.193309 14.102364 139.999832
7 139.999832 0.000119 -0.000060 -0.254047 -7.753880 12.700078 139.999832
[Rope1_Seg06]
6 139.999954 0.000119 -0.000060 -0.359428 -9.153576 11.635447 139.999954
7 139.999954 0.000119 -0.000060 -0.585291 -8.444468 10.015545 139.999954
[Rope1_Seg07]
6 139.999985 0.000060 0.000000 1.149905 -4.777817 7.423938 139.999985
7 139.999985 0.000060 0.000000 0.749008 -4.639853 7.128500 139.999985
[Rope1_Seg09]
6 121.602913 0.000119 -0.000089 -89.793175 -1.359789 0.847147 121.602913
7 121.602913 0.000119 -0.000089 -89.793175 -1.359789 0.847147 121.602913
[L_mid_hand01]
6 103.859421 1.038730 8.195221 130.544373 -67.584534 -38.866943 104.187431
7 103.859421 1.038730 8.195221 129.242477 -66.931091 -37.458961 104.187431
[L_mid_hand02]
6 105.572853 -4.139662 -10.864139 -168.923172 43.409309 -73.498886 106.211075
7 105.572853 -4.139662 -10.864139 -168.136536 43.236561 -72.353096 106.211075
[L_mid_hand03]
6 104.641464 17.579376 -3.913581 -6.012627 17.808174 74.893669 106.179977
7 104.641464 17.579376 -3.913581 -6.285014 17.719219 74.000862 106.179977
[null_rope02_connect]
6 328.732849 0.000179 -0.000119 -98.934196 59.714329 12.539274 328.732849
7 328.732849 0.000179 -0.000119 -97.580437 62.656563 18.044491 328.732849
[Rope2_Seg01]
6 0.000072 0.000136 0.000017 -171.534409 45.450104 -50.148411 0.000155
7 0.000071 0.000132 0.000020 -165.753174 40.989059 -46.578033 0.000152
[Rope2_Seg02]
6 139.999741 -0.000060 -0.000119 8.099293 -14.300450 -0.486366 139.999756
7 139.999741 -0.000060 -0.000119 7.339795 -13.602324 0.742209 139.999756
[Rope2_Seg03]
6 140.000107 0.000030 0.000000 5.606574 -26.028791 1.789906 140.000107
7 140.000107 0.000030 0.000000 4.742088 -23.762302 3.359539 140.000107
[Rope2_Seg04]
6 139.999802 0.000000 -0.000060 -0.374534 -30.580143 5.915717 139.999802
7 139.999802 0.000000 -0.000060 -0.154333 -29.372673 7.153431 139.999802
[Rope2_Seg05]
6 139.999985 -0.000060 0.000119 -0.551455 -15.252714 10.799451 139.999985
7 139.999985 -0.000060 0.000119 -0.913023 -14.512194 13.470107 139.999985
[Rope2_Seg06]
6 139.999893 -0.000030 -0.000119 0.945646 -6.718733 5.631148 139.999893
7 139.999893 -0.000030 -0.000119 1.101875 -5.698119 6.690437 139.999893
[Rope2_Seg07]
6 139.999893 0.000060 -0.000060 0.431909 -3.897357 2.629742 139.999893
7 139.999893 0.000060 -0.000060 0.581748 -3.348697 3.013098 139.999893
[Rope2_Seg09]
6 121.338966 0.000089 -0.000060 33.793236 -1.359788 -0.847141 121.338966
7 121.338966 0.000089 -0.000060 33.793236 -1.359788 -0.847141 121.338966
[R_mid_hand01]
6 104.680779 11.144459 -10.335981 -16.212063 45.237247 70.462852 105.778534
7 104.680779 11.144459 -10.335981 -16.562792 45.133286 69.965408 105.778534
[R_mid_hand02]
6 104.070427 2.443552 8.231699 49.067368 -67.749771 39.286453 104.424065
7 104.070427 2.443552 8.231699 49.649654 -67.470848 38.658398 104.424065
[R_mid_hand03]
6 106.028137 -11.221827 -5.996406 -177.101105 15.551026 -76.585571 106.788818
7 106.028137 -11.221827 -5.996406 -176.996689 15.531745 -76.202309 106.788818
[spine02]
6 129.756927 0.001550 0.000119 -1.023899 -3.926965 6.770993 129.756927
7 129.756927 0.001550 0.000119 -1.023899 -3.926965 6.770993 129.756927
[spine03]
6 78.613884 0.087399 -4.898872 1.040681 4.146420 4.212376 78.766426
7 78.613899 0.087392 -4.898872 1.040681 4.146420 4.212376 78.766434
[pelvis]
6 169.435242 0.051022 0.000000 0.019518 -0.190233 -10.721436 169.435257
7 169.435242 0.051022 0.000000 0.019518 -0.190233 -10.721436 169.435257
[null_rope03_connect]
6 -1.257226 -2.466202 137.391083 -147.775742 -87.997871 -100.479507 137.418976
7 -1.257226 -2.466202 137.391083 -147.459747 -87.801086 -100.793869 137.418976
[null_rope04_connect]
6 -1.259640 -2.480268 -137.844437 -147.775742 -87.997871 -100.479507 137.872513
7 -1.259640 -2.480268 -137.844437 -147.459747 -87.801086 -100.793869 137.872513
[Rope3_Seg01]
6 -0.000017 -0.000136 -0.000153 -142.599792 -36.256012 -61.684586 0.000205
7 -0.000017 -0.000148 -0.000153 -143.461868 -36.197987 -60.131332 0.000213
[Rope3_Seg02]
6 139.999924 -0.000119 0.000060 -23.019035 2.896294 -38.964924 139.999924
7 139.999924 -0.000119 0.000060 -22.404398 2.632380 -37.428974 139.999924
[Rope3_Seg03]
6 139.999924 -0.000119 0.000119 -18.980055 7.364017 -13.241126 139.999924
7 139.999924 -0.000119 0.000119 -16.650314 6.765678 -11.493626 139.999924
[Rope3_Seg04]
6 139.999924 0.000119 0.000000 -55.640930 24.043175 -30.659853 139.999924
7 139.999924 0.000119 0.000000 -49.235828 18.604197 -26.838800 139.999924
[Rope3_Seg05]
6 139.999924 -0.000238 0.000060 -20.764914 44.617382 -0.389778 139.999924
7 139.999924 -0.000238 0.000060 -33.321758 46.156185 -10.038532 139.999924
[Rope3_Seg06]
6 139.999893 -0.000119 -0.000060 -0.430197 10.009625 3.802383 139.999893
7 139.999893 -0.000119 -0.000060 -1.202814 11.873646 4.397879 139.999893
[Rope3_Seg07]
6 139.999771 0.000060 -0.000119 0.364915 4.864306 1.908211 139.999771
7 139.999771 0.000060 -0.000119 0.135900 5.472079 2.186878 139.999771
[Rope3_Seg08]
6 139.999985 -0.000060 0.000000 0.533086 2.549396 0.983138 139.999985
7 139.999985 -0.000060 0.000000 0.430070 2.816922 1.125378 139.999985
[Rope3_Seg09]
6 90.185997 -0.000179 -0.000060 89.793228 -1.359877 -0.847183 90.185997
7 90.185997 -0.000179 -0.000060 89.793228 -1.359877 -0.847183 90.185997
[R_rear_hand01]
6 103.366196 -6.073594 -10.757982 -177.714203 24.565960 -73.910950 104.101845
7 103.366196 -6.073594 -10.757982 -177.501556 24.545221 -73.407959 104.101845
[R_rear_hand02]
6 100.509819 12.039542 -7.992327 -12.874829 36.868488 72.167213 101.543350
7 100.509819 12.039542 -7.992327 -13.210595 36.766563 71.607780 101.543350
[R_rear_hand03]
6 101.539970 5.215704 5.435467 71.484581 -71.816628 21.513813 101.819031
7 101.539970 5.215704 5.435467 71.918968 -71.383453 21.055584 101.819031
[Rope4_Seg01]
6 -0.000072 -0.000170 0.000000 53.672825 -43.684856 -103.849319 0.000184
7 -0.000071 -0.000165 0.000000 52.355789 -41.614330 -102.290283 0.000180
[Rope4_Seg02]
6 139.999985 0.000060 0.000119 7.950092 -31.247637 10.053298 139.999985
7 139.999985 0.000060 0.000119 6.748555 -30.069601 9.479448 139.999985
[Rope4_Seg03]
6 139.999924 0.000000 -0.000238 24.940834 -30.253941 15.620420 139.999924
7 139.999924 0.000000 -0.000238 23.553516 -30.982414 16.093307 139.999924
[Rope4_Seg04]
6 139.999985 0.000000 0.000119 36.659088 -23.342541 44.021946 139.999985
7 139.999985 0.000000 0.000119 35.992737 -23.659250 36.420979 139.999985
[Rope4_Seg05]
6 139.999802 -0.000060 -0.000119 14.403216 10.250888 41.672668 139.999802
7 139.999802 -0.000060 -0.000119 19.408743 5.786541 48.916687 139.999802
[Rope4_Seg06]
6 139.999924 0.000000 0.000060 0.293632 3.417797 7.283773 139.999924
7 139.999924 0.000000 0.000060 0.673994 4.057224 9.012005 139.999924
[Rope4_Seg07]
6 139.999802 0.000000 0.000000 -0.029308 1.694901 3.592777 139.999802
7 139.999802 0.000000 0.000000 0.040382 1.826395 3.979940 139.999802
[Rope4_Seg08]
6 139.999924 0.000000 0.000119 -1.610785 0.899213 1.913232 139.999924
7 139.999924 0.000000 0.000119 -1.583891 0.950505 2.075988 139.999924
[Rope4_Seg09]
6 90.185791 0.000060 0.000060 -135.617828 2.228885 0.850567 90.185791
7 90.185791 0.000060 0.000060 -135.617828 2.228885 0.850567 90.185791
[L_rear_hand01]
6 101.696655 -8.392275 -7.654577 -12.874829 -36.868488 107.832764 102.329041
7 101.696655 -8.392275 -7.654577 -14.225129 -36.428967 110.098549 102.329041
[L_rear_hand02]
6 102.726799 -1.568258 5.773216 71.484581 71.816628 158.486160 102.900848
7 102.726799 -1.568258 5.773216 73.119141 70.038223 160.218079 102.900848
[L_rear_hand03]
6 104.552910 9.721220 -10.420293 -177.714203 -24.565960 -106.089035 105.519653
7 104.552910 9.721220 -10.420293 -176.859985 -24.478331 -108.136047 105.519653
